<svg width="70" height="55" viewBox="0 0 70 55" fill="none" xmlns="http://www.w3.org/2000/svg">
<path d="M46.0819 35.5214C48.7659 34.3492 48.4181 29.8323 45.3075 25.4255C43.9731 23.528 42.3325 21.9914 40.6919 20.9172C38.7301 22.0611 36.3536 22.6815 33.9106 22.6875C31.4639 22.6832 29.0833 22.0628 27.1184 20.9172C25.4778 21.9914 23.8415 23.5297 22.5028 25.4255C19.39 29.8306 19.0465 34.3492 21.7372 35.5214C22.9359 36.0576 24.2003 35.6555 25.504 34.6689C25.26 35.7318 25.1377 36.8098 25.1387 37.8898C25.1387 42.9395 27.6325 47.0198 30.7015 47.0198C32.5522 47.0198 33.4687 45.5331 33.9084 43.2592C34.3459 45.5176 35.2647 47.0198 37.1022 47.0198C40.1581 47.0198 42.6715 42.9378 42.6715 37.8898C42.6715 36.7555 42.5359 35.6726 42.304 34.6706C43.6165 35.6589 44.8765 36.068 46.0797 35.5248L46.0819 35.5214ZM33.9062 20.9687C35.1473 20.9833 36.3797 20.8038 37.5317 20.4406C38.6837 20.0774 39.7322 19.5378 40.6163 18.8532C41.5004 18.1687 42.2023 17.3528 42.6813 16.453C43.1603 15.5533 43.4067 14.5877 43.4063 13.6125C43.4059 12.6372 43.1586 11.6717 42.6788 10.7723C42.199 9.87279 41.4963 9.05728 40.6116 8.37319C39.7269 7.68911 38.6779 7.15011 37.5256 6.78756C36.3733 6.42501 35.1408 6.24615 33.8997 6.2614C31.4422 6.29159 29.0985 7.07997 27.3746 8.45632C25.6506 9.83267 24.6848 11.6865 24.6857 13.6176C24.6866 15.5487 25.654 17.402 27.3792 18.7774C29.1043 20.1528 31.4488 20.9399 33.9062 20.9687ZM52.7056 25.6334C54.7046 25.5875 56.602 24.9313 57.9953 23.8042C59.3886 22.677 60.1679 21.1676 60.1679 19.5963C60.1679 18.025 59.3886 16.5156 57.9953 15.3885C56.602 14.2613 54.7046 13.6051 52.7056 13.5592C50.6672 13.5594 48.7124 14.1959 47.2713 15.3285C45.8301 16.4612 45.0206 17.9973 45.0209 19.5989C45.0212 21.2005 45.8312 22.7364 47.2728 23.8687C48.7144 25.0011 50.6694 25.6371 52.7078 25.6369L52.7056 25.6334ZM62.0681 29.2944C60.97 27.7337 59.6269 26.4722 58.2794 25.5905C56.6675 26.5288 54.7161 27.0377 52.71 27.0428C51.0562 27.0428 49.5162 26.687 48.1687 26.0975C49.2537 27.9761 49.9253 29.8787 50.05 31.5803C50.2556 34.1859 49.2187 36.1178 47.145 37.0201C46.7005 37.212 46.2173 37.3423 45.7165 37.4051C45.5919 38.0789 45.5065 38.7801 45.5065 39.5192C45.5065 43.6665 47.5519 47.0164 50.074 47.0164C51.5922 47.0164 52.349 45.7961 52.7078 43.9295C53.0644 45.7858 53.819 47.0164 55.3328 47.0164C57.8375 47.0164 59.9047 43.6648 59.9047 39.5226C59.9047 38.5894 59.7887 37.7008 59.5984 36.8758C60.6747 37.6887 61.7115 38.0239 62.7003 37.577C64.9031 36.6145 64.6187 32.9055 62.0659 29.2926L62.0681 29.2944ZM15.1069 25.6334C16.6261 25.6327 18.111 25.2781 19.3738 24.6145C20.6366 23.9508 21.6206 23.0078 22.2014 21.9048C22.7822 20.8017 22.9338 19.5881 22.6368 18.4175C22.3399 17.2468 21.6079 16.1715 20.5333 15.3277C19.4587 14.4838 18.0898 13.9093 16.5997 13.6767C15.1095 13.444 13.565 13.5638 12.1615 14.0207C10.758 14.4777 9.55838 15.2514 8.71441 16.244C7.87044 17.2366 7.41998 18.4035 7.41998 19.5972C7.42056 21.1989 8.23061 22.7348 9.67206 23.8674C11.1135 24.9999 13.0683 25.6364 15.1069 25.6369V25.6334ZM20.6522 37.015C17.1697 35.4939 16.8503 30.9581 19.6547 26.0941C18.2685 26.7124 16.703 27.0397 15.109 27.0445C13.0178 27.0445 11.1015 26.4945 9.53092 25.5905C8.18561 26.4705 6.84467 27.732 5.74217 29.2909C3.18936 32.9072 2.90936 36.6162 5.11436 37.5753C6.09873 38.0187 7.1378 37.687 8.20748 36.8775C8.011 37.7502 7.91219 38.6347 7.91217 39.5209C7.91217 43.6665 9.95748 47.0147 12.4797 47.0147C13.9978 47.0147 14.7547 45.7944 15.1134 43.9295C15.4744 45.7858 16.229 47.0164 17.7384 47.0164C20.2475 47.0164 22.3103 43.6648 22.3103 39.5226C22.3103 38.7784 22.2228 38.0755 22.0981 37.4017C21.5918 37.339 21.1033 37.2076 20.6544 37.0133L20.6522 37.015Z" fill="#DB9E30"/>
</svg>
