<svg width="70" height="56" viewBox="0 0 70 56" fill="none" xmlns="http://www.w3.org/2000/svg">
<path d="M43.75 0C44.2969 0 44.8219 0.2625 45.15 0.7C48.9453 5.76406 53.6922 8.89219 59.7516 12.8953C60.3203 13.2672 60.9 13.6609 61.5016 14.0547C64.6625 16.1547 66.5 19.7094 66.5 23.4719C66.5 26.6 65.2641 29.4328 63.2406 31.5H24.2594C22.2469 29.4219 21 26.5891 21 23.4719C21 19.7094 22.8266 16.1547 25.9984 14.0547C26.5891 13.6609 27.1797 13.2781 27.7484 12.8953C33.8078 8.89219 38.5547 5.76406 42.35 0.7C42.6781 0.2625 43.2031 0 43.75 0ZM31.5 56V48.125C31.5 46.6703 30.3297 45.5 28.875 45.5C27.4203 45.5 26.25 46.6703 26.25 48.125V56H21C19.0641 56 17.5 54.4359 17.5 52.5V38.5C17.5 36.5641 19.0641 35 21 35H66.5C68.4359 35 70 36.5641 70 38.5V52.5C70 54.4359 68.4359 56 66.5 56H61.25V48.125C61.25 46.6703 60.0797 45.5 58.625 45.5C57.1703 45.5 56 46.6703 56 48.125V56H49V49.6562C49 47.5781 48.0812 45.6094 46.4844 44.275L43.75 42L41.0156 44.275C39.4188 45.6094 38.5 47.5781 38.5 49.6562V56H31.5ZM7.7 0.56875C8.32344 0.0984375 9.17656 0.0984375 9.8 0.56875L11.55 1.88125C15.2906 4.69219 17.5 9.1 17.5 13.7812V14H0V13.7812C0 9.1 2.20938 4.69219 5.95 1.88125L7.7 0.56875ZM0 17.5H17.5V32.4406C15.4109 33.6547 14 35.9078 14 38.5V52.5C14 53.55 14.2297 54.5344 14.6344 55.4312C13.9125 55.8031 13.1031 56 12.25 56H5.25C2.35156 56 0 53.6484 0 50.75V19.25V17.5Z" fill="#DB9E30"/>
</svg>
