<svg width="49" height="56" viewBox="0 0 49 56" fill="none" xmlns="http://www.w3.org/2000/svg">
<path d="M38.5 0C44.2969 0 49 4.70312 49 10.5V45.5C49 51.2969 44.2969 56 38.5 56H7H3.5C1.56406 56 0 54.4359 0 52.5C0 50.5641 1.56406 49 3.5 49V42C1.56406 42 0 40.4359 0 38.5V3.5C0 1.56406 1.56406 0 3.5 0H7H38.5ZM38.5 42H10.5V49H38.5C40.4359 49 42 47.4359 42 45.5C42 43.5641 40.4359 42 38.5 42ZM29.9797 16.4281L29.0063 18.7688L26.4797 18.9766C25.8563 19.0312 25.6047 19.7969 26.075 20.2016L28 21.8531L27.4094 24.325C27.2672 24.9266 27.9234 25.4078 28.4594 25.0797L30.625 23.7563L32.7906 25.0797C33.3266 25.4078 33.9828 24.9266 33.8406 24.325L33.25 21.8531L35.175 20.2016C35.6453 19.7969 35.3937 19.0203 34.7703 18.9766L32.2437 18.7688L31.2703 16.4281C31.0297 15.8484 30.2203 15.8484 29.9797 16.4281ZM10.5 21C10.5 28.7328 16.7672 35 24.5 35C27.3 35 29.9141 34.1797 32.1016 32.7578C32.4516 32.5281 32.5938 32.0797 32.4406 31.6969C32.2875 31.3141 31.8719 31.0844 31.4563 31.1719C30.7891 31.3031 30.0891 31.3797 29.3781 31.3797C23.6469 31.3797 18.9984 26.7313 18.9984 21C18.9984 15.2688 23.6469 10.6203 29.3781 10.6203C30.0891 10.6203 30.7781 10.6969 31.4563 10.8281C31.8719 10.9156 32.2766 10.6859 32.4406 10.3031C32.6047 9.92031 32.4625 9.47188 32.1016 9.24219C29.9141 7.82031 27.3 7 24.5 7C16.7672 7 10.5 13.2672 10.5 21Z" fill="#DB9E30"/>
</svg>
